<svg width="200" height="130" viewBox="0 0 200 130" fill="none" xmlns="http://www.w3.org/2000/svg">
<g clip-path="url(#clip0_20608_792)">
<path d="M104.158 56.5944C104.158 54.6436 107.246 53.064 111.058 53.064C114.869 53.064 117.958 54.6436 117.958 56.5944C117.958 58.543 114.869 60.1248 111.058 60.1248C107.246 60.1248 104.158 58.543 104.158 56.5944Z" fill="black"/>
<path d="M104.158 63.5602C104.158 61.6639 107.246 60.1262 111.058 60.1262C114.869 60.1262 117.958 61.6639 117.958 63.5602C117.958 65.4557 114.869 66.9934 111.058 66.9934C107.246 66.9934 104.158 65.4557 104.158 63.5602Z" fill="black"/>
<path d="M114.166 123.143H107.946V57.8H114.166V123.143Z" fill="black"/>
<path d="M120.887 106.096H113.324V97.103H120.887V106.096Z" fill="black"/>
<path d="M124.79 115.206H113.324V109.446H124.79V115.206Z" fill="black"/>
<path d="M121.043 124.024H113.324V118.264H121.043V124.024Z" fill="black"/>
<path d="M123.194 121.437H121.035V118.264H123.194V121.437Z" fill="black"/>
<path d="M124.79 123.673H123.194V118.264H124.79V123.673Z" fill="black"/>
<path d="M123.017 106.095H120.879V100.568H123.017V106.095Z" fill="black"/>
<path d="M124.79 106.096H123.017V98.2476H124.79V106.096Z" fill="black"/>
<path d="M108.532 126.803C108.532 125.036 109.971 123.606 111.742 123.606C113.519 123.606 114.959 125.036 114.959 126.803C114.959 128.568 113.519 130 111.742 130C109.971 130 108.532 128.568 108.532 126.803Z" fill="black"/>
<path d="M114.415 128.583H109.905V120.587H114.415V128.583Z" fill="black"/>
<path d="M117.183 112.958H113.324V103.92H117.183V112.958Z" fill="black"/>
<path d="M115.81 121.364H111.953V112.327H115.81V121.364Z" fill="black"/>
<path d="M121.271 52.9352H100.936C96.1918 52.9352 92.3444 49.1102 92.3444 44.4066C92.3444 44.0598 92.3621 43.7321 92.3992 43.4036L89.0818 41.3623C88.8086 42.3292 88.6812 43.3499 88.6812 44.4066C88.6812 51.1133 94.1767 56.582 100.937 56.582H121.272C126.732 56.582 131.349 53.028 132.942 48.1256L129.076 47.9415C127.738 50.8931 124.753 52.9345 121.271 52.9345V52.9352ZM100.936 35.8604H121.271C125.449 35.8604 128.91 38.812 129.699 42.7504L133.437 42.9316C132.702 36.8995 127.537 32.2144 121.27 32.2144H100.935C96.83 32.2144 93.1854 34.2381 90.9688 37.3362L94.0841 39.2509C95.6588 37.1919 98.1315 35.8604 100.935 35.8604H100.936Z" fill="black"/>
<path d="M134.857 22.6695C134.857 24.0186 132.306 26.9776 129.783 26.1741C124.839 24.727 128.102 21.2224 128.396 20.902C128.328 21.1922 127.653 23.6334 129.298 24.8567C129.495 23.8588 130.301 22.7011 132.95 19.5198C134.34 17.3665 132.95 16.5291 131.561 15.4054C134.019 15.4054 135.505 17.9431 135.505 17.9431C135.505 17.9431 134.792 18.4269 133.92 18.8761C133.304 22.5406 130.396 25.3059 130.396 25.3059C131.464 25.7558 133.275 24.5974 134.857 22.6695ZM126.486 14.4723C123.288 13.6379 121.219 14.1188 120.412 17.3024C120.702 19.7753 120.443 22.4449 119.57 23.6681C122.576 23.7329 124.418 19.5507 124.418 19.5507C124.418 19.5507 126.52 24.5672 118.669 24.5672C111.428 24.3728 113.592 19.2642 113.886 18.6515C113.886 19.5198 115.047 22.7991 117.666 23.7631C117.7 21.866 117.666 21.2563 119.604 17.3333C120.443 12.7041 117.795 12.4795 114.434 13.0274C114.787 11.5163 115.756 11.0663 120.056 11.4824C120.121 11.4824 120.186 11.5163 120.284 11.5163C120.541 11.5472 120.832 11.5781 121.124 11.6113C122.352 11.7718 123.352 11.9648 124.064 12.224C124.095 12.224 124.095 12.2549 124.127 12.2549H124.195C127.037 13.188 126.487 14.4723 126.487 14.4723H126.486ZM103.447 24.5672C95.5929 24.5672 97.6947 19.5507 97.6947 19.5507C97.6947 19.5507 99.5366 23.7321 102.543 23.6681C101.67 22.4456 101.41 19.776 101.701 17.3024C100.894 14.1188 98.8252 13.6379 95.627 14.4723C95.627 14.4723 95.0762 13.188 97.9212 12.2549C98.6645 11.9994 99.6677 11.7718 100.989 11.612C101.283 11.5781 101.571 11.5472 101.831 11.517C101.927 11.517 101.992 11.4831 102.057 11.4831C106.354 11.0671 107.323 11.517 107.679 13.0282C104.32 12.4803 101.67 12.7049 102.509 17.3341C104.449 21.257 104.415 21.8668 104.449 23.7638C107.097 22.7998 108.23 19.5198 108.23 18.6523C108.518 19.265 110.685 24.3736 103.447 24.568V24.5672ZM92.3296 26.1749C89.8095 26.9783 87.2554 24.0193 87.2554 22.6702C88.8404 24.5982 90.6831 25.7566 91.7166 25.3066C91.7166 25.3066 89.7443 23.7947 88.032 18.6854C87.1902 18.2016 86.6113 17.9431 86.6113 17.9431C86.6113 17.9431 88.0942 15.4054 90.552 15.4054C89.1625 16.5291 87.8062 17.3665 89.1625 19.5198C91.8121 22.7011 92.6198 23.8588 92.8152 24.8567C94.4617 23.6342 93.7843 21.1922 93.7199 20.902C94.0108 21.2231 97.2742 24.7278 92.3296 26.1741V26.1749ZM137.247 16.3384C136.278 15.4702 134.761 14.3125 132.464 13.188L132.334 7.62647L127.907 11.3557C124.548 10.2629 120.25 9.42556 114.758 9.16929L114.821 7.65814L114.855 6.91876C114.855 6.91876 115.728 6.62861 111.557 5.02173L109.975 5.37595C108.261 6.14625 107.52 6.50268 107.195 6.62861L107.26 7.59554L107.357 9.16929C101.862 9.42556 97.5651 10.2629 94.2048 11.3557L89.7747 7.62647L89.6481 13.188C87.3531 14.3125 85.834 15.4702 84.8989 16.3384L79.3383 13.2844L82.732 20.1634L83.0229 22.3167L84.3141 22.8006L87.741 27.6845V29.9667L89.7443 30.4196L91.2642 32.4735C102.121 30.3857 111.074 30.7392 111.074 30.7392C111.074 30.7392 119.99 30.3857 130.851 32.4735L132.368 30.4196L134.371 29.9667V27.6845L137.798 22.8006L139.089 22.3167L139.38 20.1634L142.774 13.2844L137.247 16.3384Z" fill="black"/>
<path d="M134.857 22.6694C134.857 24.0185 132.306 26.9775 129.783 26.174C124.839 24.727 128.102 21.2223 128.396 20.902C128.328 21.1921 127.653 23.6334 129.298 24.8566C129.495 23.8587 130.301 22.7011 132.95 19.5197C134.34 17.3664 132.95 16.5291 131.561 15.4053C134.019 15.4053 135.505 17.943 135.505 17.943C135.505 17.943 134.792 18.4268 133.92 18.8761C133.304 22.5405 130.396 25.3058 130.396 25.3058C131.464 25.7558 133.275 24.5974 134.857 22.6694Z" fill="#FEFEFE"/>
<path d="M133.134 16.2161C133.698 16.8 134.077 17.4982 133.867 18.4467C134.296 18.2221 134.683 17.9886 134.937 17.8288C134.628 17.4128 134.005 16.6734 133.134 16.2161ZM127.798 22.4345C127.541 22.9463 127.379 23.5251 127.531 24.0649C127.743 24.8124 128.536 25.3883 129.897 25.7889C130.939 26.1122 131.9 25.688 132.485 25.308C131.625 25.7889 130.843 25.931 130.24 25.6747L129.674 25.4347L130.118 25.0105C130.145 24.9899 132.485 22.7312 133.327 19.6736C133.314 19.6949 133.301 19.7156 133.29 19.7332C130.635 22.9279 129.868 24.0391 129.697 24.9332L129.573 25.5591L129.059 25.1799C128.24 24.5716 127.814 23.626 127.799 22.4352L127.798 22.4345ZM130.658 26.7109C130.318 26.7109 129.983 26.6593 129.66 26.5562C128.027 26.0776 127.045 25.3131 126.754 24.2844C126.33 22.7828 127.541 21.2429 128.082 20.6457L129.095 19.5263L128.786 20.9866C128.588 21.835 128.42 23.1834 129.108 24.1039C129.506 23.1657 130.439 21.9072 132.639 19.2612C133.699 17.6175 132.919 16.9974 131.628 15.9738L130.426 15.0046H131.564C134.219 15.0046 135.788 17.6271 135.853 17.7412L136.044 18.0615L135.731 18.2758C135.703 18.2943 135.085 18.7155 134.282 19.1389C133.78 21.7908 132.172 23.9309 131.28 24.9508C132.175 24.7343 133.414 23.7932 134.544 22.4153L135.261 21.5419V22.6686C135.261 23.5987 134.364 24.9486 133.175 25.8117C132.357 26.406 131.491 26.7109 130.66 26.7109H130.658Z" fill="#FEFEFE"/>
<path d="M120.413 17.3015C120.702 19.7766 120.445 22.444 119.571 23.6665C122.578 23.732 124.42 19.552 124.42 19.552C124.42 19.552 126.521 24.5656 118.668 24.5656C111.429 24.372 113.594 19.2626 113.885 18.6499C113.885 19.5182 115.049 22.7975 117.665 23.7615C117.699 21.8652 117.665 21.2547 119.603 17.3317C120.445 12.7033 117.794 12.4787 114.433 13.0266C114.789 11.5147 115.759 11.0647 120.055 11.483C120.123 11.483 120.185 11.5147 120.283 11.5147C120.543 11.5456 120.831 11.5795 121.122 11.6097C122.351 11.7702 123.354 11.9639 124.064 12.2224C124.098 12.2224 124.098 12.254 124.129 12.254H124.194C127.039 13.1864 126.488 14.4714 126.488 14.4714C123.288 13.6363 121.221 14.1202 120.414 17.3015H120.413Z" fill="#FEFEFE"/>
<path d="M123.816 12.5282C123.834 12.5444 123.876 12.5827 123.943 12.6055L123.816 12.5282ZM116.591 12.4148C117.674 12.4148 118.669 12.6313 119.331 13.3044C120.085 14.0666 120.327 15.2942 120.062 17.0513C120.433 15.6793 121.057 14.7537 121.959 14.2264C122.957 13.6394 124.274 13.557 126.074 13.9605C126.064 13.937 126.054 13.9163 126.04 13.8906C125.911 13.6247 125.484 13.1136 124.126 12.6585L123.925 12.6011C123.291 12.3713 122.356 12.1776 121.067 12.009C120.784 11.9781 120.491 11.9471 120.228 11.914C120.186 11.9037 120.109 11.8985 120.059 11.8875C116.536 11.5487 115.464 11.8079 115.04 12.5311C115.562 12.4634 116.085 12.4148 116.591 12.4148H116.591ZM113.837 20.1082C113.704 20.8137 113.694 21.6827 114.154 22.4287C114.681 23.2896 115.747 23.8345 117.316 24.0569C115.485 23.2815 114.362 21.475 113.837 20.1075L113.837 20.1082ZM118.064 24.1372C118.262 24.1505 118.467 24.1578 118.675 24.1659C121.298 24.1659 123.089 23.5716 123.842 22.4442C124.229 21.8631 124.302 21.2195 124.263 20.7047C123.488 21.992 121.894 24.0672 119.646 24.0672H119.563L118.802 24.0518L119.243 23.4339C119.992 22.3823 120.306 19.8821 120.01 17.3525C120.008 17.368 120.005 17.3864 120.003 17.407L119.969 17.5101C118.114 21.2651 118.103 21.8675 118.074 23.6453L118.064 24.1357V24.1372ZM118.67 24.9672C116.033 24.8972 114.286 24.1843 113.463 22.8477C112.349 21.0332 113.395 18.7333 113.523 18.48L114.29 16.8849V18.6523C114.29 19.3062 115.22 22.0303 117.275 23.1438C117.314 21.6223 117.484 20.7194 119.216 17.2074C119.504 15.5873 119.348 14.4657 118.755 13.8663C117.909 13.0105 116.124 13.1608 114.502 13.4215L113.907 13.5194L114.04 12.9354C114.471 11.0818 115.83 10.6554 120.093 11.0818L120.338 11.1135C120.591 11.1496 120.877 11.1805 121.166 11.2114C122.476 11.3823 123.445 11.5782 124.133 11.8212L124.318 11.8705C125.638 12.305 126.472 12.8817 126.793 13.5894C127.048 14.1505 126.879 14.5821 126.861 14.6285L126.724 14.9495L126.383 14.8641C124.538 14.3759 123.257 14.3965 122.369 14.9164C121.642 15.3428 121.138 16.1337 120.823 17.3304C121.029 19.1523 120.982 21.5951 120.296 23.1887C122.59 22.6467 124.035 19.4233 124.052 19.3902L124.429 18.5264L124.793 19.3976C124.824 19.4719 125.575 21.3101 124.514 22.8919C123.59 24.269 121.623 24.9672 118.67 24.9672Z" fill="#FEFEFE"/>
<path d="M103.446 24.5665C95.5951 24.5665 97.6939 19.5537 97.6939 19.5537C97.6939 19.5537 99.5359 23.7321 102.542 23.6681C101.669 22.4456 101.412 19.7761 101.703 17.3024C100.895 14.121 98.8266 13.6372 95.6262 14.4723C95.6262 14.4723 95.0784 13.188 97.9205 12.2549C98.6638 11.9994 99.6669 11.7711 100.991 11.612C101.282 11.5804 101.573 11.5465 101.83 11.5163C101.929 11.5163 101.992 11.4854 102.056 11.4854C106.356 11.0663 107.325 11.5163 107.678 13.0282C104.319 12.4803 101.669 12.7049 102.51 17.3333C104.449 21.2563 104.418 21.8668 104.449 23.7631C107.099 22.7991 108.229 19.5198 108.229 18.6515C108.52 19.2642 110.687 24.3736 103.446 24.5673V24.5665Z" fill="#FEFEFE"/>
<path d="M98.0278 13.7115C98.8696 13.7115 99.5685 13.8794 100.153 14.2255C101.058 14.7528 101.678 15.6785 102.053 17.0504C101.788 15.2933 102.027 14.0649 102.781 13.3035C103.755 12.3159 105.436 12.3159 107.073 12.531C106.652 11.8071 105.597 11.5515 102.094 11.8822C102.004 11.9006 101.929 11.916 101.829 11.916C101.621 11.9477 101.331 11.9786 101.035 12.0088C99.8379 12.1539 98.8318 12.3653 98.0552 12.6348C96.6442 13.0973 96.2052 13.6194 96.0726 13.8904C96.0593 13.9169 96.049 13.9375 96.0416 13.9604C96.7789 13.7917 97.4393 13.7122 98.0286 13.7122L98.0278 13.7115ZM108.277 20.1176C107.75 21.4822 106.636 23.2857 104.806 24.0538C106.374 23.8322 107.428 23.2887 107.956 22.4315C108.413 21.6892 108.408 20.8209 108.278 20.1184L108.277 20.1176ZM97.8539 20.7097C97.8146 21.2289 97.885 21.8733 98.2744 22.4492C99.031 23.5715 100.818 24.1658 103.44 24.1658C103.65 24.1577 103.855 24.1503 104.05 24.1348L104.042 23.6385C104.013 21.9042 104.001 21.2584 102.146 17.5136L102.111 17.4083C102.106 17.3877 102.103 17.3693 102.101 17.3538C101.805 19.8834 102.12 22.3829 102.868 23.4352L103.309 24.0531L102.55 24.0686C100.295 24.0995 98.6357 22.0139 97.8531 20.7112L97.8539 20.7097ZM103.452 24.967H103.445C100.488 24.967 98.5216 24.2689 97.597 22.8918C96.5398 21.3099 97.2897 19.4718 97.3216 19.3974L97.6851 18.5292L98.0612 19.39C98.0797 19.4232 99.5292 22.6465 101.815 23.1885C101.129 21.5942 101.085 19.1522 101.29 17.3303C100.974 16.1343 100.469 15.3426 99.7447 14.9162C98.8533 14.3971 97.5748 14.3735 95.7314 14.864L95.3878 14.9494L95.2531 14.6283C95.2346 14.5819 95.0629 14.1504 95.3205 13.5892C95.6433 12.8815 96.4746 12.3049 97.7939 11.8704C98.6201 11.5891 99.6803 11.3615 100.943 11.212C101.234 11.1804 101.522 11.1494 101.777 11.1141L101.966 11.4933L101.881 11.1008L102.058 11.0802C106.314 10.6663 107.631 11.0596 108.075 12.936L108.212 13.52L107.615 13.422C105.992 13.1613 104.211 13.0089 103.357 13.869C102.764 14.4663 102.61 15.5879 102.896 17.208C104.635 20.723 104.798 21.6199 104.84 23.1473C106.892 22.0515 107.825 19.3974 107.825 18.6529V16.867L108.594 18.4798C108.797 18.9011 109.741 21.0816 108.646 22.8527C107.826 24.1857 106.08 24.8993 103.456 24.967H103.453H103.452Z" fill="#FEFEFE"/>
<path d="M92.3288 26.1741C89.8095 26.9775 87.2554 24.0207 87.2554 22.6694C88.8404 24.5974 90.6823 25.755 91.7158 25.3051C91.7158 25.3051 89.7436 23.7939 88.032 18.6839C87.1902 18.2008 86.6106 17.9423 86.6106 17.9423C86.6106 17.9423 88.0964 15.4038 90.5513 15.4038C89.1617 16.5283 87.8062 17.3656 89.1617 19.519C91.8113 22.6996 92.6198 23.858 92.8145 24.8558C94.4617 23.6334 93.7836 21.1907 93.7192 20.9012C94.0101 21.2216 97.2735 24.7262 92.3288 26.1733V26.1741Z" fill="#FEFEFE"/>
<path d="M87.2095 17.7824C87.4612 17.9113 87.818 18.0976 88.2363 18.3355L88.2519 18.3436C88.0905 17.4356 88.4629 16.7691 89.0003 16.2058C88.1504 16.6476 87.5293 17.3561 87.2102 17.7824H87.2095ZM89.6518 25.3212C90.2448 25.6983 91.1954 26.1166 92.2089 25.7918L92.2193 25.7889C93.5748 25.3912 94.3706 24.8124 94.5809 24.0678C94.7364 23.5222 94.5728 22.9382 94.3107 22.4241C94.2974 23.6304 93.8687 24.5745 93.0558 25.1791L92.5413 25.5613L92.4169 24.9309C92.2452 24.0362 91.4819 22.9301 88.8574 19.7833C90.3744 23.7085 91.9461 24.9751 91.9676 24.9876L92.4969 25.4015L91.8758 25.6725C91.2857 25.9362 90.5098 25.797 89.6518 25.322V25.3212ZM91.4575 26.7109C90.6209 26.7109 89.7562 26.406 88.9404 25.8117C87.7499 24.9486 86.8541 23.5995 86.8541 22.6686V21.5419L87.5715 22.4153C88.7819 23.8882 89.9664 24.7026 90.7875 24.9302C90.0471 24.0561 88.8212 22.2526 87.6988 18.9556C86.9607 18.5395 86.4514 18.3149 86.4462 18.3097L86.0361 18.1286L86.2589 17.7412C86.327 17.6271 87.8958 15.0046 90.5513 15.0046H91.6892L90.5121 15.9524C89.2158 16.9842 88.434 17.6064 89.5037 19.3046C91.6818 21.9145 92.6139 23.165 93.0033 24.1039C93.6947 23.1841 93.5281 21.8453 93.3416 21.0544L92.9781 19.5322L94.0205 20.6332C94.5735 21.2436 95.7839 22.7865 95.3582 24.2851C95.0673 25.3109 94.0908 26.0761 92.4517 26.557C92.1289 26.6601 91.7973 26.7116 91.4589 26.7116L91.4575 26.7109Z" fill="#FEFEFE"/>
<path d="M111.058 0L109.001 4.70798H113.114L111.058 0Z" fill="black"/>
<path d="M106.814 6.44596C106.814 4.99299 108.713 3.8125 111.059 3.8125C113.399 3.8125 115.302 4.99373 115.302 6.44596C115.302 7.8982 113.4 9.07648 111.059 9.07648C108.713 9.07648 106.814 7.89746 106.814 6.44596Z" fill="black"/>
<path d="M0.371208 119.827L0.000305176 105.964L1.20777 105.778C5.11002 116.317 13.3802 124.45 25.7362 124.45C32.1474 124.45 38.0944 120.383 38.0944 112.803C38.0944 103.747 26.1071 99.4956 18.6742 96.5367C9.10334 92.5644 1.11449 89.4191 1.11449 78.7019C1.11449 67.2401 10.4048 60.1233 24.9929 60.1233C31.8668 60.1233 38.0012 61.6013 42.8333 64.005L43.2019 76.0191L42.181 76.388C38.3721 66.8697 30.4735 61.6941 21.4616 61.6941C14.0287 61.6941 8.17423 66.0383 8.17423 73.3385C8.17423 81.5622 17.5586 84.8915 24.9922 87.8498C34.4698 91.4524 45.7116 95.6132 45.7116 106.702C45.7116 119.366 34.0049 126.39 23.319 126.39C13.7504 126.39 5.10928 123.337 0.370467 119.825L0.371208 119.827Z" fill="black"/>
<path d="M67.6834 90.8089C78.276 90.8089 82.2708 84.8932 82.2708 77.7763C82.2708 70.2913 77.4387 62.2502 65.8259 62.2502C64.5245 62.2502 63.1319 62.343 61.7371 62.5264V90.8089H67.6834ZM81.4342 110.311C75.8596 96.8152 75.3939 92.2854 67.2178 92.2854H61.7371V113.728C61.7371 120.382 62.3864 123.159 65.4543 124.173V125.466H48.1729V124.173C51.2386 123.158 51.8886 120.382 51.8886 113.728V72.5072C51.8886 65.855 51.2393 63.0824 48.1729 62.0676V60.77H67.6834C87.9372 60.77 92.12 68.0724 92.12 75.559C92.12 84.061 86.2648 90.437 73.9073 91.9179C84.4059 93.1191 86.4514 97.464 91.3745 109.756C96.2999 122.049 97.3216 124.264 100.758 124.264C101.224 124.264 101.688 124.264 102.153 124.173V125.466C100.015 126.021 97.0425 126.114 95.4634 126.114C87.7529 126.114 85.8924 121.122 81.4342 110.311Z" fill="black"/>
<path d="M133.436 124.173C136.504 123.155 137.154 120.382 137.154 113.728V72.5065C137.154 65.8543 136.505 63.0824 133.436 62.0669V60.7693H150.718V62.0669C147.653 63.0831 147.003 65.8551 147.003 72.5065V119.18C147.003 122.139 148.673 123.802 151.648 123.802H159.263C168.65 123.802 173.482 121.584 177.2 113.637L178.408 113.821L177.659 125.467H133.435V124.174L133.436 124.173Z" fill="black"/>
<path d="M182.718 124.173C185.786 123.155 186.436 120.382 186.436 113.728V72.5065C186.436 65.8543 185.787 63.0824 182.718 62.0669V60.7693H199.999V62.0669C196.934 63.0831 196.284 65.8551 196.284 72.5065V113.728C196.284 120.382 196.933 123.156 199.999 124.173V125.466H182.718V124.173Z" fill="black"/>
</g>
<defs>
<clipPath id="clip0_20608_792">
<rect width="200" height="130" fill="white"/>
</clipPath>
</defs>
</svg>
