<svg width="99" height="63" viewBox="0 0 99 63" fill="none" xmlns="http://www.w3.org/2000/svg">
<g clip-path="url(#clip0_20621_298)">
<path d="M51.1008 21.7671C51.1008 21.0168 52.29 20.4092 53.7576 20.4092C55.2249 20.4092 56.414 21.0168 56.414 21.7671C56.414 22.5165 55.2249 23.1249 53.7576 23.1249C52.29 23.1249 51.1008 22.5165 51.1008 21.7671Z" fill="black"/>
<path d="M51.1008 24.4463C51.1008 23.7169 52.29 23.1255 53.7576 23.1255C55.2249 23.1255 56.414 23.7169 56.414 24.4463C56.414 25.1753 55.2249 25.7667 53.7576 25.7667C52.29 25.7667 51.1008 25.1753 51.1008 24.4463Z" fill="black"/>
<path d="M54.9541 47.3627H52.5593V22.2308H54.9541V47.3627Z" fill="black"/>
<path d="M57.5415 40.806H54.63V37.3473H57.5415V40.806Z" fill="black"/>
<path d="M59.0442 44.31H54.63V42.0945H59.0442V44.31Z" fill="black"/>
<path d="M57.6017 47.7015H54.63V45.486H57.6017V47.7015Z" fill="black"/>
<path d="M58.43 46.7065H57.5985V45.486H58.43V46.7065Z" fill="black"/>
<path d="M59.0442 47.5664H58.43V45.486H59.0442V47.5664Z" fill="black"/>
<path d="M58.3618 40.806H57.5387V38.68H58.3618V40.806Z" fill="black"/>
<path d="M59.0442 40.806H58.3618V37.7875H59.0442V40.806Z" fill="black"/>
<path d="M52.7848 48.7704C52.7848 48.0907 53.3391 47.5409 54.0209 47.5409C54.705 47.5409 55.2593 48.0907 55.2593 48.7704C55.2593 49.4494 54.705 50 54.0209 50C53.3391 50 52.7848 49.4494 52.7848 48.7704Z" fill="black"/>
<path d="M55.0498 49.455H53.3135V46.3796H55.0498V49.455Z" fill="black"/>
<path d="M56.1156 43.4452H54.63V39.9693H56.1156V43.4452Z" fill="black"/>
<path d="M55.5871 46.6784H54.1019V43.2028H55.5871V46.6784Z" fill="black"/>
<path d="M57.6895 20.3597H49.8604C48.034 20.3597 46.5527 18.8885 46.5527 17.0794C46.5527 16.946 46.5595 16.82 46.5738 16.6937L45.2966 15.9085C45.1914 16.2804 45.1424 16.673 45.1424 17.0794C45.1424 19.6589 47.2581 21.7623 49.8607 21.7623H57.6898C59.7921 21.7623 61.5695 20.3953 62.1829 18.5098L60.6942 18.439C60.1792 19.5742 59.0299 20.3594 57.6895 20.3594V20.3597ZM49.8604 13.7924H57.6895C59.2979 13.7924 60.6304 14.9277 60.9342 16.4424L62.3733 16.5121C62.0903 14.1921 60.1019 12.3901 57.6892 12.3901H49.8601C48.2797 12.3901 46.8765 13.1684 46.0231 14.36L47.2225 15.0965C47.8288 14.3045 48.7807 13.7924 49.8601 13.7924H49.8604Z" fill="black"/>
<path d="M62.92 8.71901C62.92 9.23791 61.9378 10.376 60.9667 10.067C59.063 9.51039 60.3194 8.16244 60.4326 8.03923C60.4063 8.15083 60.1464 9.08978 60.7797 9.56024C60.8558 9.17645 61.1659 8.73119 62.186 7.50759C62.721 6.67939 62.186 6.35735 61.651 5.92512C62.5973 5.92512 63.1694 6.90117 63.1694 6.90117C63.1694 6.90117 62.8952 7.08726 62.5591 7.26004C62.322 8.66945 61.2027 9.73302 61.2027 9.73302C61.6137 9.90608 62.3112 9.46054 62.92 8.71901ZM59.6972 5.56626C58.4659 5.24534 57.6695 5.4303 57.3586 6.65475C57.4706 7.60588 57.3705 8.63262 57.0345 9.10309C58.192 9.12801 58.9011 7.51949 58.9011 7.51949C58.9011 7.51949 59.7103 9.44893 56.6876 9.44893C53.8998 9.37415 54.7332 7.40931 54.8461 7.17365C54.8461 7.50759 55.2933 8.76886 56.3014 9.13963C56.3145 8.41 56.3014 8.17547 57.0476 6.66665C57.3705 4.88619 56.3513 4.7998 55.0573 5.01054C55.1929 4.42932 55.5663 4.25626 57.2217 4.4163C57.2468 4.4163 57.2716 4.42933 57.3095 4.42933C57.4084 4.44122 57.5205 4.45312 57.6328 4.46586C58.1056 4.52761 58.4907 4.60182 58.7649 4.70152C58.7768 4.70152 58.7768 4.71342 58.7891 4.71342H58.815C59.9095 5.07228 59.6975 5.56626 59.6975 5.56626H59.6972ZM50.8272 9.44893C47.8034 9.44893 48.6126 7.51949 48.6126 7.51949C48.6126 7.51949 49.3217 9.12773 50.4792 9.10309C50.1432 8.63291 50.0431 7.60616 50.1551 6.65475C49.8442 5.4303 49.0478 5.24534 47.8165 5.56626C47.8165 5.56626 47.6044 5.07228 48.6998 4.71342C48.986 4.61513 49.3722 4.52761 49.8809 4.46615C49.9941 4.45312 50.105 4.44122 50.205 4.42961C50.2421 4.42961 50.2671 4.41658 50.2919 4.41658C51.9462 4.25655 52.3196 4.42961 52.4564 5.01082C51.1633 4.80009 50.1432 4.88648 50.4661 6.66693C51.2131 8.17576 51.2 8.41028 51.2131 9.13991C52.2324 8.76915 52.6685 7.50759 52.6685 7.17393C52.7796 7.40959 53.6139 9.37443 50.8272 9.44921V9.44893ZM46.547 10.0672C45.5768 10.3763 44.5934 9.23819 44.5934 8.7193C45.2037 9.46082 45.9131 9.90636 46.311 9.7333C46.311 9.7333 45.5517 9.1518 44.8924 7.18668C44.5684 7.00059 44.3455 6.90117 44.3455 6.90117C44.3455 6.90117 44.9164 5.92512 45.8627 5.92512C45.3277 6.35735 44.8055 6.67939 45.3277 7.50759C46.3478 8.73119 46.6587 9.17645 46.734 9.56024C47.3679 9.09006 47.1071 8.15083 47.0823 8.03923C47.1943 8.16273 48.4507 9.51067 46.547 10.067V10.0672ZM63.8403 6.28399C63.4672 5.95005 62.8832 5.50479 61.9988 5.07228L61.9489 2.93325L60.2444 4.36758C58.951 3.94725 57.2964 3.6252 55.1818 3.52664L55.2061 2.94542L55.2192 2.66105C55.2192 2.66105 55.5552 2.54945 53.9497 1.93142L53.3406 2.06766C52.6804 2.36393 52.3951 2.50102 52.2703 2.54945L52.2954 2.92135L52.3324 3.52664C50.217 3.6252 48.5627 3.94725 47.269 4.36758L45.5634 2.93325L45.5146 5.07228C44.6311 5.50479 44.0462 5.95005 43.6862 6.28399L41.5454 5.10939L42.8519 7.75514L42.9639 8.58334L43.461 8.76943L44.7804 10.6479V11.5257L45.5517 11.6998L46.1368 12.4898C50.3167 11.6868 53.7635 11.8228 53.7635 11.8228C53.7635 11.8228 57.1964 11.6868 61.3777 12.4898L61.9617 11.6998L62.733 11.5257V10.6479L64.0524 8.76943L64.5495 8.58334L64.6615 7.75514L65.968 5.10939L63.8403 6.28399Z" fill="black"/>
<path d="M62.92 8.71901C62.92 9.23791 61.9378 10.376 60.9667 10.067C59.063 9.51039 60.3194 8.16244 60.4326 8.03923C60.4063 8.15083 60.1464 9.08978 60.7797 9.56024C60.8558 9.17645 61.1659 8.73119 62.186 7.50759C62.721 6.67939 62.186 6.35735 61.651 5.92512C62.5973 5.92512 63.1694 6.90117 63.1694 6.90117C63.1694 6.90117 62.8952 7.08726 62.5591 7.26004C62.322 8.66945 61.2027 9.73302 61.2027 9.73302C61.6137 9.90608 62.3112 9.46054 62.92 8.71901Z" fill="#FEFEFE"/>
<path d="M62.2567 6.23697C62.4739 6.46158 62.6198 6.73009 62.5389 7.09491C62.7039 7.00852 62.853 6.91873 62.9507 6.85727C62.8319 6.69724 62.5919 6.41286 62.2567 6.23697ZM60.2022 8.62866C60.1033 8.82551 60.0412 9.04814 60.0994 9.25576C60.1812 9.54325 60.4864 9.76474 61.0106 9.91882C61.4116 10.0432 61.7816 9.88002 62.0067 9.73387C61.6755 9.91882 61.3748 9.97349 61.1425 9.87492L60.9245 9.78258L61.0955 9.61944C61.1058 9.61151 62.0067 8.74281 62.3308 7.56679C62.326 7.575 62.3208 7.58293 62.3169 7.58973C61.2945 8.81843 60.9995 9.24584 60.9336 9.5897L60.8857 9.83045L60.6876 9.68458C60.3727 9.45063 60.2085 9.08694 60.2025 8.62894L60.2022 8.62866ZM61.3036 10.2734C61.1725 10.2734 61.0436 10.2536 60.9194 10.214C60.2906 10.0299 59.9124 9.73585 59.8004 9.34016C59.6373 8.76263 60.1033 8.17038 60.3117 7.94067L60.7016 7.51014L60.5828 8.07181C60.5067 8.3981 60.4417 8.91672 60.7067 9.27077C60.8598 8.90992 61.2189 8.42586 62.066 7.40817C62.4742 6.77598 62.1741 6.53749 61.677 6.14378L61.2141 5.77104H61.6522C62.6743 5.77104 63.2785 6.77966 63.3036 6.82356L63.3769 6.94677L63.2566 7.0292C63.2457 7.03628 63.0077 7.19829 62.6985 7.36116C62.5055 8.38111 61.8862 9.20421 61.543 9.59649C61.8873 9.51322 62.3644 9.15124 62.7994 8.6213L63.0756 8.28537V8.71873C63.0756 9.07646 62.7304 9.59564 62.2724 9.9276C61.9574 10.1562 61.6242 10.2734 61.3042 10.2734H61.3036Z" fill="#FEFEFE"/>
<path d="M57.3591 6.65447C57.4703 7.60644 57.3714 8.63234 57.0351 9.10252C58.1925 9.12773 58.9017 7.52005 58.9017 7.52005C58.9017 7.52005 59.7109 9.44836 56.6873 9.44836C53.9004 9.37387 54.7338 7.40874 54.8458 7.17308C54.8458 7.50702 55.2938 8.7683 56.3011 9.13906C56.3142 8.40971 56.3011 8.17491 57.0473 6.66608C57.3714 4.88591 56.351 4.79952 55.0567 5.01025C55.1938 4.42876 55.5672 4.2557 57.2215 4.41658C57.2474 4.41658 57.2713 4.42876 57.3093 4.42876C57.4093 4.44066 57.5202 4.45368 57.6322 4.4653C58.1053 4.52704 58.4915 4.60154 58.7646 4.70095C58.7777 4.70095 58.7777 4.71313 58.7897 4.71313H58.8148C59.9101 5.07172 59.698 5.56597 59.698 5.56597C58.4659 5.24478 57.6704 5.43087 57.3594 6.65447H57.3591Z" fill="#FEFEFE"/>
<path d="M58.6691 4.8185C58.6762 4.82473 58.6922 4.83946 58.7181 4.84824L58.6691 4.8185ZM55.8876 4.77488C56.3045 4.77488 56.6876 4.85815 56.9427 5.11704C57.2329 5.41019 57.3261 5.88235 57.224 6.55817C57.3668 6.03049 57.6071 5.67445 57.9543 5.47165C58.3385 5.24591 58.8455 5.21419 59.5387 5.3694C59.5347 5.36034 59.5307 5.35241 59.5256 5.3425C59.4757 5.24025 59.3116 5.04368 58.7885 4.86863L58.7113 4.84654C58.4673 4.75817 58.1073 4.68368 57.6111 4.61881C57.5019 4.60692 57.3891 4.59502 57.2879 4.58228C57.2719 4.57831 57.242 4.57633 57.2229 4.57208C55.8665 4.44179 55.4538 4.54149 55.2904 4.81963C55.4917 4.79357 55.6929 4.77488 55.8878 4.77488H55.8876ZM54.8273 7.7339C54.7762 8.00525 54.7723 8.33947 54.9495 8.62639C55.1525 8.9575 55.5626 9.1671 56.1669 9.25264C55.4617 8.95439 55.0296 8.2596 54.8276 7.73362L54.8273 7.7339ZM56.4548 9.28351C56.5309 9.28861 56.6098 9.29144 56.6899 9.29456C57.7 9.29456 58.3895 9.06598 58.6794 8.63234C58.8282 8.40886 58.8564 8.16131 58.8413 7.96333C58.5431 8.45843 57.9292 9.25661 57.0639 9.25661H57.0319L56.7389 9.25066L56.9088 9.01302C57.197 8.60855 57.3178 7.64695 57.2041 6.67401C57.2032 6.67996 57.2021 6.68704 57.2012 6.69497L57.1881 6.73463C56.4739 8.17887 56.4699 8.41056 56.4587 9.09431L56.4548 9.28295V9.28351ZM56.6879 9.60273C55.6726 9.57582 55.0003 9.30164 54.6833 8.78756C54.2544 8.08965 54.6571 7.20509 54.7064 7.10765L55.0017 6.49415V7.17393C55.0017 7.42545 55.3597 8.47316 56.1509 8.90142C56.166 8.31624 56.2313 7.96899 56.8983 6.61821C57.0091 5.99508 56.9493 5.56371 56.721 5.33315C56.3949 5.00402 55.708 5.0618 55.0835 5.16207L54.8543 5.19974L54.9054 4.97513C55.0715 4.26221 55.5946 4.09822 57.236 4.26221L57.3301 4.27439C57.4278 4.28827 57.5379 4.30017 57.649 4.31206C58.1532 4.37778 58.5263 4.45312 58.7914 4.54659L58.8624 4.56557C59.3706 4.73268 59.6918 4.95446 59.8155 5.22665C59.9135 5.44248 59.8485 5.60846 59.8417 5.6263L59.7887 5.7498L59.6576 5.71694C58.9473 5.52915 58.4542 5.53708 58.1122 5.73705C57.8323 5.90105 57.6382 6.20525 57.517 6.66552C57.5963 7.36625 57.5783 8.30576 57.3141 8.9187C58.1974 8.71023 58.7535 7.47049 58.7603 7.45774L58.9054 7.1255L59.0454 7.46057C59.0573 7.48918 59.3463 8.19615 58.9382 8.80455C58.5822 9.33421 57.8252 9.60273 56.6879 9.60273Z" fill="#FEFEFE"/>
<path d="M50.8267 9.44864C47.8043 9.44864 48.6123 7.52062 48.6123 7.52062C48.6123 7.52062 49.3214 9.12773 50.4789 9.10309C50.1426 8.63291 50.0437 7.60616 50.1557 6.65475C49.8447 5.43115 49.0484 5.24506 47.8162 5.56626C47.8162 5.56626 47.6053 5.07228 48.6995 4.71342C48.9857 4.61513 49.3719 4.52733 49.8818 4.46615C49.9938 4.45397 50.1058 4.44094 50.2047 4.42933C50.2426 4.42933 50.2669 4.41743 50.2917 4.41743C51.9471 4.25627 52.3202 4.42933 52.4561 5.01082C51.163 4.80009 50.1426 4.88648 50.4667 6.66665C51.2129 8.17547 51.2009 8.41028 51.2129 9.13963C52.2333 8.76886 52.6682 7.50759 52.6682 7.17365C52.7802 7.40931 53.6145 9.37443 50.8267 9.44893V9.44864Z" fill="#FEFEFE"/>
<path d="M48.7408 5.27367C49.0649 5.27367 49.334 5.33825 49.5591 5.47137C49.9074 5.67417 50.1463 6.03021 50.2905 6.55788C50.1885 5.88207 50.2805 5.40962 50.5707 5.11675C50.9458 4.73693 51.5928 4.73693 52.2233 4.81963C52.0611 4.54121 51.6549 4.44292 50.3065 4.5701C50.2717 4.57718 50.2426 4.58313 50.2044 4.58313C50.1243 4.59531 50.0126 4.6072 49.8986 4.61881C49.4377 4.67461 49.0504 4.7559 48.7514 4.85957C48.2081 5.03745 48.0391 5.23826 47.9881 5.3425C47.9829 5.35269 47.979 5.36062 47.9761 5.3694C48.26 5.30454 48.5142 5.27395 48.7411 5.27395L48.7408 5.27367ZM52.6867 7.73758C52.4838 8.26243 52.0548 8.95609 51.3505 9.25151C51.9539 9.16625 52.3598 8.95722 52.563 8.62753C52.7392 8.34202 52.7372 8.00808 52.687 7.73787L52.6867 7.73758ZM48.6738 7.96531C48.6587 8.16499 48.6858 8.41283 48.8357 8.63433C49.127 9.06598 49.8151 9.29456 50.8244 9.29456C50.9053 9.29144 50.9843 9.28861 51.0595 9.28266L51.0564 9.09176C51.0453 8.42473 51.0404 8.17632 50.3261 6.73604L50.313 6.69554C50.311 6.68761 50.3099 6.68053 50.309 6.67458C50.195 7.64751 50.3162 8.60883 50.6043 9.01359L50.7742 9.25122L50.482 9.25717C49.6139 9.26907 48.9748 8.46693 48.6736 7.96588L48.6738 7.96531ZM50.8292 9.60273H50.8264C49.688 9.60273 48.9309 9.33421 48.5749 8.80455C48.1679 8.19615 48.4567 7.48918 48.4689 7.46057L48.6089 7.12663L48.7537 7.45774C48.7608 7.47049 49.3189 8.71023 50.199 8.9187C49.9348 8.30548 49.918 7.36625 49.9969 6.66552C49.8749 6.20553 49.6808 5.90105 49.4018 5.73705C49.0586 5.53737 48.5664 5.5283 47.8567 5.71694L47.7244 5.7498L47.6726 5.6263C47.6654 5.60846 47.5993 5.44248 47.6985 5.22665C47.8228 4.95446 48.1428 4.73268 48.6508 4.56557C48.9688 4.45737 49.377 4.36985 49.863 4.31235C49.9753 4.30017 50.0861 4.28827 50.1842 4.27468L50.2572 4.42055L50.2244 4.26958L50.2925 4.26165C51.9308 4.10247 52.4379 4.25372 52.6089 4.97542L52.6619 5.20003L52.4319 5.16235C51.8068 5.06209 51.1214 5.00346 50.7924 5.33428C50.5641 5.56399 50.5051 5.99537 50.6151 6.6185C51.2844 7.97041 51.3474 8.3154 51.3633 8.90284C52.1534 8.48137 52.5128 7.46057 52.5128 7.17422V6.48736L52.809 7.10766C52.8871 7.26967 53.2502 8.10835 52.8289 8.78954C52.5131 9.30221 51.8408 9.57667 50.8306 9.60273H50.8295H50.8292Z" fill="#FEFEFE"/>
<path d="M46.5467 10.067C45.5768 10.376 44.5934 9.23876 44.5934 8.71901C45.2037 9.46054 45.9128 9.90579 46.3107 9.73273C46.3107 9.73273 45.5514 9.15152 44.8924 7.18611C44.5684 7.00031 44.3452 6.90089 44.3452 6.90089C44.3452 6.90089 44.9172 5.92456 45.8624 5.92456C45.3274 6.35707 44.8055 6.67911 45.3274 7.50731C46.3475 8.73063 46.6587 9.17616 46.7337 9.55996C47.3679 9.08978 47.1068 8.15027 47.082 8.03895C47.194 8.16216 48.4504 9.51011 46.5467 10.0667V10.067Z" fill="#FEFEFE"/>
<path d="M44.5758 6.83942C44.6727 6.88899 44.81 6.96065 44.9711 7.05214L44.9771 7.05525C44.9149 6.70602 45.0583 6.44968 45.2652 6.23301C44.938 6.40295 44.6989 6.67543 44.576 6.83942H44.5758ZM45.5161 9.73896C45.7444 9.88398 46.1103 10.0449 46.5005 9.91996L46.5045 9.91882C47.0264 9.76587 47.3328 9.54325 47.4138 9.25689C47.4736 9.04701 47.4106 8.8224 47.3097 8.62469C47.3046 9.08864 47.1396 9.45176 46.8266 9.6843L46.6285 9.8313L46.5806 9.58885C46.5145 9.24471 46.2206 8.81928 45.2102 7.60899C45.7942 9.11867 46.3993 9.60584 46.4076 9.61066L46.6114 9.76984L46.3723 9.87407C46.1451 9.97547 45.8464 9.92194 45.5161 9.73925V9.73896ZM46.2112 10.2734C45.8892 10.2734 45.5562 10.1562 45.2421 9.9276C44.7838 9.59564 44.4389 9.07675 44.4389 8.71873V8.28537L44.7151 8.6213C45.1811 9.18778 45.6372 9.50104 45.9533 9.58856C45.6683 9.25236 45.1963 8.5587 44.7642 7.29063C44.48 7.1306 44.2839 7.04421 44.2819 7.04223L44.124 6.97255L44.2098 6.82356C44.236 6.77966 44.84 5.77104 45.8624 5.77104H46.3004L45.8473 6.13557C45.3482 6.53239 45.0472 6.77173 45.459 7.42488C46.2976 8.42869 46.6564 8.90963 46.8064 9.27077C47.0726 8.917 47.0084 8.40207 46.9366 8.09787L46.7967 7.51241L47.198 7.93585C47.4109 8.17066 47.8769 8.76405 47.713 9.34044C47.601 9.735 47.2251 10.0293 46.594 10.2142C46.4697 10.2539 46.3421 10.2737 46.2118 10.2737L46.2112 10.2734Z" fill="#FEFEFE"/>
<path d="M53.7576 0L52.9655 1.81076H54.5491L53.7576 0Z" fill="black"/>
<path d="M52.1235 2.47921C52.1235 1.92037 52.8546 1.46634 53.7578 1.46634C54.6588 1.46634 55.3913 1.92066 55.3913 2.47921C55.3913 3.03776 54.6591 3.49095 53.7578 3.49095C52.8546 3.49095 52.1235 3.03748 52.1235 2.47921Z" fill="black"/>
<path d="M11.1429 46.0873L11.0001 40.7556L11.465 40.6839C12.9674 44.7374 16.1514 47.8655 20.9084 47.8655C23.3768 47.8655 25.6664 46.3012 25.6664 43.3858C25.6664 39.9027 21.0512 38.2676 18.1896 37.1295C14.5048 35.6017 11.4291 34.392 11.4291 30.27C11.4291 25.8616 15.0059 23.1244 20.6223 23.1244C23.2687 23.1244 25.6305 23.6928 27.4908 24.6173L27.6327 29.2381L27.2397 29.38C25.7732 25.7192 22.7323 23.7285 19.2627 23.7285C16.4011 23.7285 14.1471 25.3994 14.1471 28.2071C14.1471 31.3701 17.7601 32.6506 20.622 33.7884C24.2709 35.174 28.599 36.7743 28.599 41.0394C28.599 45.91 24.0919 48.6116 19.9778 48.6116C16.2939 48.6116 12.9671 47.4375 11.1426 46.0867L11.1429 46.0873Z" fill="black"/>
<path d="M37.0582 34.9265C41.1364 34.9265 42.6744 32.6512 42.6744 29.914C42.6744 27.0351 40.814 23.9424 36.3431 23.9424C35.842 23.9424 35.3059 23.9781 34.7689 24.0486V34.9265H37.0582ZM42.3523 42.4273C40.2061 37.2366 40.0268 35.4944 36.879 35.4944H34.7689V43.7415C34.7689 46.3009 35.0189 47.3687 36.2 47.759V48.2561H29.5467V47.759C30.727 47.3684 30.9772 46.3009 30.9772 43.7415V27.8874C30.9772 25.3288 30.7273 24.2624 29.5467 23.8721V23.3731H37.0582C44.8559 23.3731 46.4663 26.1817 46.4663 29.0611C46.4663 32.3311 44.2121 34.7834 39.4544 35.353C43.4964 35.815 44.2839 37.4861 46.1793 42.2137C48.0756 46.9418 48.4689 47.7938 49.792 47.7938C49.9713 47.7938 50.15 47.7938 50.329 47.759V48.2561C49.5058 48.4696 48.3615 48.5053 47.7535 48.5053C44.785 48.5053 44.0687 46.5852 42.3523 42.4273Z" fill="black"/>
<path d="M62.373 47.759C63.5541 47.3673 63.8044 46.3009 63.8044 43.7415V27.8871C63.8044 25.3286 63.5544 24.2624 62.373 23.8719V23.3728H69.0266V23.8719C67.8463 24.2627 67.5961 25.3288 67.5961 27.8871V45.8386C67.5961 46.9767 68.2391 47.616 69.3846 47.616H72.3164C75.9302 47.616 77.7906 46.7631 79.222 43.7067L79.6871 43.7775L79.399 48.2564H62.3727V47.7593L62.373 47.759Z" fill="black"/>
<path d="M81.3466 47.759C82.5277 47.3673 82.778 46.3009 82.778 43.7415V27.8871C82.778 25.3286 82.528 24.2624 81.3466 23.8719V23.3728H87.9999V23.8719C86.8196 24.2627 86.5694 25.3288 86.5694 27.8871V43.7415C86.5694 46.3009 86.8193 47.3676 87.9999 47.759V48.2561H81.3466V47.759Z" fill="black"/>
</g>
<path d="M0.170898 61V60.8193H0.419922C0.69987 60.8193 0.898438 60.7298 1.01562 60.5508C1.08724 60.4434 1.12305 60.2025 1.12305 59.8281V55.5508C1.12305 55.1374 1.07747 54.8786 0.986328 54.7744C0.859375 54.6312 0.670573 54.5596 0.419922 54.5596H0.170898V54.3789H2.86621C3.85579 54.3789 4.60775 54.4912 5.12207 54.7158C5.63965 54.9404 6.05469 55.3148 6.36719 55.8389C6.68294 56.363 6.84082 56.9684 6.84082 57.6553C6.84082 58.5765 6.56087 59.3464 6.00098 59.9648C5.37272 60.6549 4.41569 61 3.12988 61H0.170898ZM2.06055 60.5215C2.47396 60.6126 2.82064 60.6582 3.10059 60.6582C3.85579 60.6582 4.48242 60.3929 4.98047 59.8623C5.47852 59.3317 5.72754 58.6123 5.72754 57.7041C5.72754 56.7894 5.47852 56.0684 4.98047 55.541C4.48242 55.0137 3.84277 54.75 3.06152 54.75C2.76855 54.75 2.4349 54.7972 2.06055 54.8916V60.5215ZM9.31641 54.7402V57.3574H10.7715C11.1491 57.3574 11.4014 57.3005 11.5283 57.1865C11.6976 57.0368 11.792 56.7731 11.8115 56.3955H11.9922V58.7002H11.8115C11.766 58.3779 11.7204 58.1712 11.6748 58.0801C11.6162 57.9661 11.5202 57.8766 11.3867 57.8115C11.2533 57.7464 11.0482 57.7139 10.7715 57.7139H9.31641V59.8965C9.31641 60.1895 9.32943 60.3685 9.35547 60.4336C9.38151 60.4954 9.42708 60.5459 9.49219 60.585C9.55729 60.6208 9.68099 60.6387 9.86328 60.6387H10.9863C11.3607 60.6387 11.6325 60.6126 11.8018 60.5605C11.971 60.5085 12.1338 60.4059 12.29 60.2529C12.4919 60.0511 12.6986 59.7467 12.9102 59.3398H13.1055L12.5342 61H7.43164V60.8193H7.66602C7.82227 60.8193 7.97038 60.7819 8.11035 60.707C8.21452 60.6549 8.28451 60.5768 8.32031 60.4727C8.35938 60.3685 8.37891 60.1553 8.37891 59.833V55.5312C8.37891 55.1113 8.33659 54.8525 8.25195 54.7549C8.13477 54.6247 7.93945 54.5596 7.66602 54.5596H7.43164V54.3789H12.5342L12.6074 55.8291H12.417C12.3486 55.4808 12.2721 55.2415 12.1875 55.1113C12.1061 54.9811 11.984 54.8818 11.8213 54.8135C11.6911 54.7646 11.4616 54.7402 11.1328 54.7402H9.31641ZM17.4316 61L14.873 55.4287V59.8525C14.873 60.2594 14.917 60.5133 15.0049 60.6143C15.1253 60.751 15.3158 60.8193 15.5762 60.8193H15.8105V61H13.5059V60.8193H13.7402C14.0202 60.8193 14.2188 60.7347 14.3359 60.5654C14.4076 60.4613 14.4434 60.2236 14.4434 59.8525V55.5264C14.4434 55.2334 14.4108 55.0218 14.3457 54.8916C14.3001 54.7972 14.2155 54.7191 14.0918 54.6572C13.9714 54.5921 13.776 54.5596 13.5059 54.5596V54.3789H15.3809L17.7832 59.5596L20.1465 54.3789H22.0215V54.5596H21.792C21.5088 54.5596 21.3086 54.6442 21.1914 54.8135C21.1198 54.9176 21.084 55.1553 21.084 55.5264V59.8525C21.084 60.2594 21.1296 60.5133 21.2207 60.6143C21.3411 60.751 21.5316 60.8193 21.792 60.8193H22.0215V61H19.209V60.8193H19.4434C19.7266 60.8193 19.9251 60.7347 20.0391 60.5654C20.1107 60.4613 20.1465 60.2236 20.1465 59.8525V55.4287L17.5928 61H17.4316ZM25.3223 60.8193V61H22.4854V60.8193H22.7197C22.9932 60.8193 23.1917 60.7396 23.3154 60.5801C23.3936 60.4759 23.4326 60.2253 23.4326 59.8281V55.5508C23.4326 55.2155 23.4115 54.9941 23.3691 54.8867C23.3366 54.8053 23.2699 54.7354 23.1689 54.6768C23.0257 54.5986 22.876 54.5596 22.7197 54.5596H22.4854V54.3789H25.3223V54.5596H25.083C24.8128 54.5596 24.6159 54.6393 24.4922 54.7988C24.4108 54.903 24.3701 55.1536 24.3701 55.5508V59.8281C24.3701 60.1634 24.3913 60.3848 24.4336 60.4922C24.4661 60.5736 24.5345 60.6436 24.6387 60.7021C24.7786 60.7803 24.9268 60.8193 25.083 60.8193H25.3223ZM32.3242 61H30.5566L28.3154 57.9043C28.1494 57.9108 28.0143 57.9141 27.9102 57.9141C27.8678 57.9141 27.8223 57.9141 27.7734 57.9141C27.7246 57.9108 27.6742 57.9076 27.6221 57.9043V59.8281C27.6221 60.2448 27.6676 60.5036 27.7588 60.6045C27.8825 60.7477 28.068 60.8193 28.3154 60.8193H28.5742V61H25.7373V60.8193H25.9863C26.2663 60.8193 26.4665 60.7282 26.5869 60.5459C26.6553 60.445 26.6895 60.2057 26.6895 59.8281V55.5508C26.6895 55.1341 26.6439 54.8753 26.5527 54.7744C26.4258 54.6312 26.237 54.5596 25.9863 54.5596H25.7373V54.3789H28.1494C28.8525 54.3789 29.3701 54.431 29.7021 54.5352C30.0374 54.6361 30.3206 54.8249 30.5518 55.1016C30.7861 55.375 30.9033 55.7021 30.9033 56.083C30.9033 56.4899 30.7699 56.8431 30.5029 57.1426C30.2393 57.4421 29.8291 57.6536 29.2725 57.7773L30.6396 59.6768C30.9521 60.113 31.2207 60.4027 31.4453 60.5459C31.6699 60.6891 31.9629 60.7803 32.3242 60.8193V61ZM27.6221 57.5967C27.6839 57.5967 27.7376 57.5983 27.7832 57.6016C27.8288 57.6016 27.8662 57.6016 27.8955 57.6016C28.527 57.6016 29.0023 57.4648 29.3213 57.1914C29.6436 56.918 29.8047 56.5697 29.8047 56.1465C29.8047 55.7331 29.6745 55.3978 29.4141 55.1406C29.1569 54.8802 28.8151 54.75 28.3887 54.75C28.1999 54.75 27.9443 54.7809 27.6221 54.8428V57.5967ZM36.8555 57.6211C37.3145 57.7188 37.6579 57.875 37.8857 58.0898C38.2015 58.3893 38.3594 58.7555 38.3594 59.1885C38.3594 59.5173 38.2552 59.833 38.0469 60.1357C37.8385 60.4352 37.5521 60.6549 37.1875 60.7949C36.8262 60.9316 36.2728 61 35.5273 61H32.4023V60.8193H32.6514C32.9281 60.8193 33.1266 60.7314 33.2471 60.5557C33.3219 60.4417 33.3594 60.1992 33.3594 59.8281V55.5508C33.3594 55.1406 33.3122 54.8818 33.2178 54.7744C33.0908 54.6312 32.902 54.5596 32.6514 54.5596H32.4023V54.3789H35.2637C35.7975 54.3789 36.2256 54.418 36.5479 54.4961C37.0361 54.6133 37.4089 54.8216 37.666 55.1211C37.9232 55.4173 38.0518 55.7591 38.0518 56.1465C38.0518 56.4785 37.9508 56.7764 37.749 57.04C37.5472 57.3005 37.2493 57.4941 36.8555 57.6211ZM34.2969 57.3574C34.4173 57.3802 34.554 57.3981 34.707 57.4111C34.8633 57.4209 35.0342 57.4258 35.2197 57.4258C35.695 57.4258 36.0514 57.3753 36.2891 57.2744C36.5299 57.1702 36.7139 57.0124 36.8408 56.8008C36.9678 56.5892 37.0312 56.3581 37.0312 56.1074C37.0312 55.7201 36.8734 55.3896 36.5576 55.1162C36.2419 54.8428 35.7812 54.7061 35.1758 54.7061C34.8503 54.7061 34.5573 54.7419 34.2969 54.8135V57.3574ZM34.2969 60.5215C34.6745 60.6094 35.0472 60.6533 35.415 60.6533C36.0042 60.6533 36.4535 60.5215 36.7627 60.2578C37.0719 59.9909 37.2266 59.6621 37.2266 59.2715C37.2266 59.0143 37.1566 58.7669 37.0166 58.5293C36.8766 58.2917 36.6488 58.1045 36.333 57.9678C36.0173 57.8311 35.6266 57.7627 35.1611 57.7627C34.9593 57.7627 34.7868 57.766 34.6436 57.7725C34.5003 57.779 34.3848 57.7904 34.2969 57.8066V60.5215ZM41.9922 60.8193V61H39.1553V60.8193H39.3896C39.6631 60.8193 39.8617 60.7396 39.9854 60.5801C40.0635 60.4759 40.1025 60.2253 40.1025 59.8281V55.5508C40.1025 55.2155 40.0814 54.9941 40.0391 54.8867C40.0065 54.8053 39.9398 54.7354 39.8389 54.6768C39.6956 54.5986 39.5459 54.5596 39.3896 54.5596H39.1553V54.3789H41.9922V54.5596H41.7529C41.4827 54.5596 41.2858 54.6393 41.1621 54.7988C41.0807 54.903 41.04 55.1536 41.04 55.5508V59.8281C41.04 60.1634 41.0612 60.3848 41.1035 60.4922C41.1361 60.5736 41.2044 60.6436 41.3086 60.7021C41.4486 60.7803 41.5967 60.8193 41.7529 60.8193H41.9922ZM47.9688 59.1689L48.1299 59.2031L47.5635 61H42.4365V60.8193H42.6855C42.9655 60.8193 43.1657 60.7282 43.2861 60.5459C43.3545 60.4417 43.3887 60.2008 43.3887 59.8232V55.5508C43.3887 55.1374 43.3431 54.8786 43.252 54.7744C43.125 54.6312 42.9362 54.5596 42.6855 54.5596H42.4365V54.3789H45.4346V54.5596C45.083 54.5563 44.8356 54.5889 44.6924 54.6572C44.5524 54.7256 44.4564 54.8118 44.4043 54.916C44.3522 55.0202 44.3262 55.2692 44.3262 55.6631V59.8232C44.3262 60.0934 44.3522 60.279 44.4043 60.3799C44.4434 60.4482 44.5036 60.4987 44.585 60.5312C44.6663 60.5638 44.9202 60.5801 45.3467 60.5801H45.8301C46.3379 60.5801 46.6943 60.5426 46.8994 60.4678C47.1045 60.3929 47.2917 60.2611 47.4609 60.0723C47.6302 59.8802 47.7995 59.5791 47.9688 59.1689ZM50.4395 54.7402V57.3574H51.8945C52.2721 57.3574 52.5244 57.3005 52.6514 57.1865C52.8206 57.0368 52.915 56.7731 52.9346 56.3955H53.1152V58.7002H52.9346C52.889 58.3779 52.8434 58.1712 52.7979 58.0801C52.7393 57.9661 52.6432 57.8766 52.5098 57.8115C52.3763 57.7464 52.1712 57.7139 51.8945 57.7139H50.4395V59.8965C50.4395 60.1895 50.4525 60.3685 50.4785 60.4336C50.5046 60.4954 50.5501 60.5459 50.6152 60.585C50.6803 60.6208 50.804 60.6387 50.9863 60.6387H52.1094C52.4837 60.6387 52.7555 60.6126 52.9248 60.5605C53.0941 60.5085 53.2568 60.4059 53.4131 60.2529C53.6149 60.0511 53.8216 59.7467 54.0332 59.3398H54.2285L53.6572 61H48.5547V60.8193H48.7891C48.9453 60.8193 49.0934 60.7819 49.2334 60.707C49.3376 60.6549 49.4076 60.5768 49.4434 60.4727C49.4824 60.3685 49.502 60.1553 49.502 59.833V55.5312C49.502 55.1113 49.4596 54.8525 49.375 54.7549C49.2578 54.6247 49.0625 54.5596 48.7891 54.5596H48.5547V54.3789H53.6572L53.7305 55.8291H53.54C53.4717 55.4808 53.3952 55.2415 53.3105 55.1113C53.2292 54.9811 53.1071 54.8818 52.9443 54.8135C52.8141 54.7646 52.5846 54.7402 52.2559 54.7402H50.4395ZM57.4512 57.3281L59.8926 59.7549C60.293 60.1553 60.6348 60.4287 60.918 60.5752C61.2012 60.7184 61.4844 60.7998 61.7676 60.8193V61H58.6182V60.8193C58.807 60.8193 58.9421 60.7884 59.0234 60.7266C59.1081 60.6615 59.1504 60.5898 59.1504 60.5117C59.1504 60.4336 59.1341 60.3636 59.1016 60.3018C59.0723 60.2399 58.9714 60.1243 58.7988 59.9551L56.5137 57.6943V59.8281C56.5137 60.1634 56.5348 60.3848 56.5771 60.4922C56.6097 60.5736 56.6781 60.6436 56.7822 60.7021C56.9222 60.7803 57.0703 60.8193 57.2266 60.8193H57.4512V61H54.6289V60.8193H54.8633C55.1367 60.8193 55.3353 60.7396 55.459 60.5801C55.5371 60.4759 55.5762 60.2253 55.5762 59.8281V55.5508C55.5762 55.2155 55.555 54.9925 55.5127 54.8818C55.4801 54.8037 55.4134 54.7354 55.3125 54.6768C55.1693 54.5986 55.0195 54.5596 54.8633 54.5596H54.6289V54.3789H57.4512V54.5596H57.2266C57.0736 54.5596 56.9255 54.597 56.7822 54.6719C56.6813 54.724 56.6113 54.8021 56.5723 54.9062C56.5332 55.0104 56.5137 55.2253 56.5137 55.5508V57.5771C56.5788 57.5153 56.8018 57.3086 57.1826 56.957C58.1494 56.0716 58.7337 55.4808 58.9355 55.1846C59.0234 55.0544 59.0674 54.9404 59.0674 54.8428C59.0674 54.7679 59.0332 54.7028 58.9648 54.6475C58.8965 54.5889 58.7809 54.5596 58.6182 54.5596H58.4668V54.3789H60.8984V54.5596C60.7552 54.5628 60.625 54.5824 60.5078 54.6182C60.3906 54.654 60.2474 54.724 60.0781 54.8281C59.9089 54.929 59.7005 55.0934 59.4531 55.3213C59.3815 55.3864 59.0511 55.7201 58.4619 56.3223L57.4512 57.3281ZM70.3271 54.2275L70.498 56.3174H70.3271C70.1546 55.7965 69.9316 55.4043 69.6582 55.1406C69.2643 54.7598 68.7581 54.5693 68.1396 54.5693C67.2965 54.5693 66.6553 54.903 66.2158 55.5703C65.848 56.1335 65.6641 56.804 65.6641 57.582C65.6641 58.2135 65.7861 58.7897 66.0303 59.3105C66.2744 59.8314 66.5934 60.2139 66.9873 60.458C67.3844 60.6989 67.7913 60.8193 68.208 60.8193C68.4521 60.8193 68.6882 60.7884 68.916 60.7266C69.1439 60.6647 69.3636 60.5736 69.5752 60.4531V58.5391C69.5752 58.207 69.5492 57.9906 69.4971 57.8896C69.4482 57.7855 69.3701 57.7074 69.2627 57.6553C69.1585 57.5999 68.973 57.5723 68.7061 57.5723V57.3867H71.2695V57.5723H71.1475C70.8936 57.5723 70.7194 57.6569 70.625 57.8262C70.5599 57.9466 70.5273 58.1842 70.5273 58.5391V60.5654C70.153 60.7673 69.7835 60.9154 69.4189 61.0098C69.0544 61.1042 68.6491 61.1514 68.2031 61.1514C66.9238 61.1514 65.9521 60.7412 65.2881 59.9209C64.79 59.3057 64.541 58.596 64.541 57.792C64.541 57.2093 64.681 56.651 64.9609 56.1172C65.293 55.4824 65.7487 54.9941 66.3281 54.6523C66.8132 54.3691 67.3861 54.2275 68.0469 54.2275C68.2878 54.2275 68.5059 54.2471 68.7012 54.2861C68.8997 54.3252 69.1797 54.4115 69.541 54.5449C69.7233 54.6133 69.8454 54.6475 69.9072 54.6475C69.9691 54.6475 70.0212 54.6198 70.0635 54.5645C70.109 54.5059 70.1367 54.3936 70.1465 54.2275H70.3271ZM78.1738 61H76.4062L74.165 57.9043C73.999 57.9108 73.8639 57.9141 73.7598 57.9141C73.7174 57.9141 73.6719 57.9141 73.623 57.9141C73.5742 57.9108 73.5238 57.9076 73.4717 57.9043V59.8281C73.4717 60.2448 73.5173 60.5036 73.6084 60.6045C73.7321 60.7477 73.9176 60.8193 74.165 60.8193H74.4238V61H71.5869V60.8193H71.8359C72.1159 60.8193 72.3161 60.7282 72.4365 60.5459C72.5049 60.445 72.5391 60.2057 72.5391 59.8281V55.5508C72.5391 55.1341 72.4935 54.8753 72.4023 54.7744C72.2754 54.6312 72.0866 54.5596 71.8359 54.5596H71.5869V54.3789H73.999C74.7021 54.3789 75.2197 54.431 75.5518 54.5352C75.887 54.6361 76.1702 54.8249 76.4014 55.1016C76.6357 55.375 76.7529 55.7021 76.7529 56.083C76.7529 56.4899 76.6195 56.8431 76.3525 57.1426C76.0889 57.4421 75.6787 57.6536 75.1221 57.7773L76.4893 59.6768C76.8018 60.113 77.0703 60.4027 77.2949 60.5459C77.5195 60.6891 77.8125 60.7803 78.1738 60.8193V61ZM73.4717 57.5967C73.5335 57.5967 73.5872 57.5983 73.6328 57.6016C73.6784 57.6016 73.7158 57.6016 73.7451 57.6016C74.3766 57.6016 74.8519 57.4648 75.1709 57.1914C75.4932 56.918 75.6543 56.5697 75.6543 56.1465C75.6543 55.7331 75.5241 55.3978 75.2637 55.1406C75.0065 54.8802 74.6647 54.75 74.2383 54.75C74.0495 54.75 73.7939 54.7809 73.4717 54.8428V57.5967ZM81.7432 54.2275C82.6025 54.2275 83.3464 54.5547 83.9746 55.209C84.6061 55.86 84.9219 56.6738 84.9219 57.6504C84.9219 58.6562 84.6045 59.4912 83.9697 60.1553C83.335 60.8193 82.5667 61.1514 81.665 61.1514C80.7536 61.1514 79.987 60.8275 79.3652 60.1797C78.7467 59.5319 78.4375 58.6937 78.4375 57.665C78.4375 56.6136 78.7956 55.7559 79.5117 55.0918C80.1335 54.5156 80.8773 54.2275 81.7432 54.2275ZM81.6504 54.584C81.0579 54.584 80.5827 54.8037 80.2246 55.2432C79.7786 55.79 79.5557 56.5908 79.5557 57.6455C79.5557 58.7262 79.7868 59.5579 80.249 60.1406C80.6038 60.5833 81.0726 60.8047 81.6553 60.8047C82.277 60.8047 82.7897 60.5622 83.1934 60.0771C83.6003 59.5921 83.8037 58.8271 83.8037 57.7822C83.8037 56.6494 83.5807 55.8047 83.1348 55.248C82.7767 54.8053 82.2819 54.584 81.6504 54.584ZM90.083 54.5596V54.3789H92.4268V54.5596H92.1777C91.9173 54.5596 91.7171 54.6686 91.5771 54.8867C91.5088 54.9876 91.4746 55.222 91.4746 55.5898V58.2754C91.4746 58.9395 91.4079 59.4554 91.2744 59.8232C91.1442 60.1878 90.8854 60.502 90.498 60.7656C90.1139 61.026 89.5898 61.1562 88.9258 61.1562C88.2031 61.1562 87.6546 61.0309 87.2803 60.7803C86.9059 60.5296 86.6406 60.1927 86.4844 59.7695C86.3802 59.4798 86.3281 58.9362 86.3281 58.1387V55.5508C86.3281 55.1439 86.2712 54.877 86.1572 54.75C86.0465 54.623 85.8659 54.5596 85.6152 54.5596H85.3662V54.3789H88.2275V54.5596H87.9736C87.7002 54.5596 87.5049 54.6458 87.3877 54.8184C87.3063 54.9355 87.2656 55.1797 87.2656 55.5508V58.4365C87.2656 58.6937 87.2884 58.9883 87.334 59.3203C87.3828 59.6523 87.4691 59.9111 87.5928 60.0967C87.7165 60.2822 87.8939 60.4352 88.125 60.5557C88.3594 60.6761 88.6458 60.7363 88.9844 60.7363C89.4173 60.7363 89.8047 60.6419 90.1465 60.4531C90.4883 60.2643 90.721 60.0234 90.8447 59.7305C90.9717 59.4342 91.0352 58.9346 91.0352 58.2314V55.5508C91.0352 55.1374 90.9896 54.8786 90.8984 54.7744C90.7715 54.6312 90.5827 54.5596 90.332 54.5596H90.083ZM94.5898 57.8994V59.8281C94.5898 60.2448 94.6354 60.5036 94.7266 60.6045C94.8503 60.7477 95.0374 60.8193 95.2881 60.8193H95.542V61H92.7051V60.8193H92.9541C93.234 60.8193 93.4342 60.7282 93.5547 60.5459C93.6198 60.445 93.6523 60.2057 93.6523 59.8281V55.5508C93.6523 55.1341 93.6084 54.8753 93.5205 54.7744C93.3936 54.6312 93.2048 54.5596 92.9541 54.5596H92.7051V54.3789H95.1318C95.7243 54.3789 96.1914 54.4408 96.5332 54.5645C96.875 54.6849 97.1631 54.89 97.3975 55.1797C97.6318 55.4694 97.749 55.8128 97.749 56.21C97.749 56.7503 97.57 57.1898 97.2119 57.5283C96.8571 57.8669 96.3542 58.0361 95.7031 58.0361C95.5436 58.0361 95.3711 58.0247 95.1855 58.002C95 57.9792 94.8014 57.945 94.5898 57.8994ZM94.5898 57.6211C94.7624 57.6536 94.9154 57.6781 95.0488 57.6943C95.1823 57.7106 95.2962 57.7188 95.3906 57.7188C95.7292 57.7188 96.0205 57.5885 96.2646 57.3281C96.512 57.0645 96.6357 56.7243 96.6357 56.3076C96.6357 56.0212 96.5771 55.7559 96.46 55.5117C96.3428 55.2643 96.1768 55.0804 95.9619 54.96C95.7471 54.8363 95.5029 54.7744 95.2295 54.7744C95.0635 54.7744 94.8503 54.8053 94.5898 54.8672V57.6211Z" fill="black"/>
<defs>
<clipPath id="clip0_20621_298">
<rect width="77" height="50" fill="white" transform="translate(11)"/>
</clipPath>
</defs>
</svg>
